<?xml version="1.0" encoding="UTF-8"?>
<svg id="Layer_2" data-name="Layer 2" xmlns="http://www.w3.org/2000/svg" viewBox="0 0 225.93 49.93">
  <defs>
    <style>
      .cls-1 {
        fill: #de2b26;
      }

      .cls-1, .cls-2, .cls-3 {
        stroke-width: 0px;
      }

      .cls-2 {
        fill: #000;
      }

      .cls-3 {
        fill: #fff;
      }
    </style>
  </defs>
  <g id="Layer_1-2" data-name="Layer 1">
    <g>
      <g>
        <polygon class="cls-1" points="138.86 31.54 0 31.54 0 0 138.86 0 138.86 31.54 138.86 31.54"/>
        <polygon class="cls-3" points="4.75 26.81 4.75 20.05 6.02 20.05 6.02 22.71 13.11 22.71 13.11 24.18 6.02 24.18 6.02 26.81 4.75 26.81 4.75 26.81"/>
        <polygon class="cls-3" points="4.75 19.22 4.75 17.75 8.07 17.75 8.07 13.95 4.75 13.95 4.75 12.48 13.11 12.48 13.11 13.95 9.34 13.95 9.34 17.75 13.11 17.75 13.11 19.22 4.75 19.22 4.75 19.22"/>
        <polygon class="cls-3" points="4.75 10.83 4.75 4.81 6.02 4.81 6.02 9.37 8.2 9.37 8.2 5.15 9.4 5.15 9.4 9.37 11.84 9.37 11.84 4.73 13.11 4.73 13.11 10.83 4.75 10.83 4.75 10.83"/>
        <polygon class="cls-3" points="17.24 4.74 25.71 4.74 29.51 19.44 29.57 19.44 33.37 4.74 41.83 4.74 41.83 26.78 36.42 26.78 36.42 10.05 36.36 10.05 31.73 26.78 27.34 26.78 22.71 10.05 22.65 10.05 22.65 26.78 17.24 26.78 17.24 4.74 17.24 4.74"/>
        <path class="cls-3" d="M55.18,22.32c3.7,0,5.12-3.28,5.12-6.56s-1.42-6.55-5.12-6.55-5.13,3.27-5.13,6.55,1.42,6.56,5.13,6.56h0ZM55.18,4.28c6.94,0,10.86,5.1,10.86,11.49s-3.92,11.49-10.86,11.49-10.88-5.1-10.88-11.49,3.92-11.49,10.88-11.49h0Z"/>
        <path class="cls-3" d="M74.23,22.19h4.6c1.82,0,3.09-.64,3.09-2.46,0-1.95-1.36-2.6-3.09-2.6h-4.6v5.06h0ZM74.23,13.42h4.45c.99,0,2.35-.52,2.35-2.1s-1.14-2.13-2.35-2.13h-4.45v4.23h0ZM68.48,4.74h10.32c3.8-.06,7.96.92,7.96,5.53,0,1.98-1.17,3.58-2.9,4.45,2.35.68,3.8,2.72,3.8,5.22,0,5.25-3.86,6.85-8.58,6.85h-10.59V4.74h0Z"/>
        <polygon class="cls-3" points="90.1 4.74 95.84 4.74 95.84 26.78 90.1 26.78 90.1 4.74 90.1 4.74"/>
        <polygon class="cls-3" points="99.15 4.74 104.89 4.74 104.89 21.85 115.17 21.85 115.17 26.78 99.15 26.78 99.15 4.74 99.15 4.74"/>
        <polygon class="cls-3" points="117.34 4.74 134.91 4.74 134.91 9.35 123.08 9.35 123.08 13.21 133.89 13.21 133.89 17.65 123.08 17.65 123.08 21.85 135.22 21.85 135.22 26.78 117.34 26.78 117.34 4.74 117.34 4.74"/>
        <path class="cls-2" d="M156.48,11.2c-.34-3.15-2.43-4.5-5.46-4.5-2.48,0-4.95.9-4.95,3.76s3.52,3.12,7.07,3.92c3.52.81,7.04,2.04,7.04,6.37,0,4.7-4.6,6.58-8.62,6.58-4.94,0-9.11-2.42-9.11-7.79h2.78c0,3.71,3.09,5.31,6.42,5.31,2.66,0,5.6-.83,5.6-4.01s-3.52-3.56-7.04-4.33c-3.52-.77-7.07-1.79-7.07-5.83,0-4.48,3.98-6.46,8-6.46,4.51,0,7.94,2.13,8.13,6.98h-2.79Z"/>
        <polygon class="cls-2" points="163.73 4.74 166.67 4.74 166.67 14.22 178.28 14.22 178.28 4.74 181.21 4.74 181.21 26.78 178.28 26.78 178.28 16.69 166.67 16.69 166.67 26.78 163.73 26.78 163.73 4.74 163.73 4.74"/>
        <path class="cls-2" d="M195.36,24.84c5.37,0,7.63-4.63,7.63-9.08s-2.25-9.07-7.63-9.07-7.63,4.63-7.63,9.07,2.25,9.08,7.63,9.08h0ZM195.36,4.22c7,0,10.56,5.56,10.56,11.55s-3.56,11.56-10.56,11.56-10.57-5.57-10.57-11.56,3.55-11.55,10.57-11.55h0Z"/>
        <path class="cls-2" d="M212.44,15.3h5.74c3.31.03,4.82-1.42,4.82-4.04s-1.52-4.04-4.82-4.04h-5.74v8.09h0ZM209.51,4.74h9.67c4.38,0,6.76,2.44,6.76,6.51s-2.38,6.55-6.76,6.52h-6.74v9.01h-2.93V4.74h0Z"/>
        <polygon class="cls-2" points="221.5 23.68 221.5 24.05 220.46 24.05 220.46 26.75 220.04 26.75 220.04 24.05 219.01 24.05 219.01 23.68 221.5 23.68 221.5 23.68"/>
        <path class="cls-2" d="M222.13,23.68h.59l.88,2.59.88-2.59h.59v3.07h-.4v-1.81c0-.06,0-.16,0-.31,0-.14,0-.3,0-.47l-.88,2.59h-.41l-.88-2.59v.09c0,.08,0,.19,0,.35,0,.15,0,.27,0,.34v1.81h-.4v-3.07h0Z"/>
      </g>
      <g>
        <path class="cls-2" d="M14.56,41.53h1.34l4.42,5.71v-5.71h1.43v8.26h-1.21l-4.55-5.87v5.87h-1.43v-8.26Z"/>
        <path class="cls-2" d="M25.28,45.68v-.02c0-2.32,1.79-4.27,4.33-4.27s4.3,1.92,4.3,4.25v.02c0,2.32-1.79,4.27-4.33,4.27s-4.3-1.92-4.3-4.25ZM32.4,45.68v-.02c0-1.6-1.17-2.94-2.81-2.94s-2.78,1.31-2.78,2.91v.02c0,1.6,1.17,2.94,2.81,2.94s2.78-1.31,2.78-2.91Z"/>
        <path class="cls-2" d="M36.37,41.53h1.57l1.97,6.12,2.03-6.15h1.23l2.03,6.15,1.97-6.12h1.52l-2.88,8.32h-1.25l-2.03-5.93-2.03,5.93h-1.25l-2.88-8.32Z"/>
        <path class="cls-2" d="M59.28,42.87h-2.62v-1.34h6.7v1.34h-2.62v6.91h-1.46v-6.91Z"/>
        <path class="cls-2" d="M66.67,41.53h1.45v3.43h3.94v-3.43h1.45v8.26h-1.45v-3.48h-3.94v3.48h-1.45v-8.26Z"/>
        <path class="cls-2" d="M80.34,41.47h1.34l3.63,8.32h-1.53l-.84-1.99h-3.9l-.85,1.99h-1.49l3.63-8.32ZM82.41,46.51l-1.43-3.3-1.42,3.3h2.84Z"/>
        <path class="cls-2" d="M89.47,42.87h-2.62v-1.34h6.7v1.34h-2.62v6.91h-1.46v-6.91Z"/>
        <path class="cls-2" d="M96.26,44.25c.72-.13,1.06-.5,1-1.11h-.6v-1.62h1.57v1.38c0,1.31-.62,1.86-1.82,1.96l-.15-.61Z"/>
        <path class="cls-2" d="M101.25,48.58l.87-1.04c.79.68,1.58,1.07,2.61,1.07.9,0,1.46-.41,1.46-1.04v-.02c0-.59-.33-.91-1.86-1.26-1.76-.42-2.75-.94-2.75-2.47v-.02c0-1.42,1.18-2.39,2.82-2.39,1.2,0,2.16.37,3,1.04l-.78,1.1c-.74-.55-1.49-.85-2.24-.85-.85,0-1.34.44-1.34.98v.02c0,.64.38.92,1.96,1.3,1.75.42,2.65,1.05,2.65,2.42v.02c0,1.54-1.21,2.47-2.95,2.47-1.26,0-2.45-.44-3.44-1.32Z"/>
        <path class="cls-2" d="M116.44,41.53h3.68c1.04,0,1.85.31,2.38.83.44.45.68,1.06.68,1.78v.02c0,1.36-.81,2.17-1.97,2.5l2.23,3.13h-1.71l-2.03-2.88h-1.82v2.88h-1.45v-8.26ZM120.02,45.62c1.04,0,1.7-.54,1.7-1.38v-.02c0-.88-.64-1.37-1.71-1.37h-2.11v2.77h2.12Z"/>
        <path class="cls-2" d="M126.74,41.53h6.12v1.3h-4.67v2.15h4.14v1.3h-4.14v2.22h4.73v1.3h-6.18v-8.26Z"/>
        <path class="cls-2" d="M135.78,41.53h1.57l1.97,6.12,2.03-6.15h1.23l2.03,6.15,1.97-6.12h1.52l-2.88,8.32h-1.25l-2.03-5.93-2.03,5.93h-1.25l-2.88-8.32Z"/>
        <path class="cls-2" d="M153.23,41.47h1.34l3.63,8.32h-1.53l-.84-1.99h-3.9l-.85,1.99h-1.49l3.63-8.32ZM155.3,46.51l-1.43-3.3-1.42,3.3h2.84Z"/>
        <path class="cls-2" d="M161.39,41.53h3.68c1.04,0,1.85.31,2.38.83.44.45.68,1.06.68,1.78v.02c0,1.36-.81,2.17-1.97,2.5l2.23,3.13h-1.71l-2.03-2.88h-1.82v2.88h-1.45v-8.26ZM164.97,45.62c1.04,0,1.7-.54,1.7-1.38v-.02c0-.88-.64-1.37-1.71-1.37h-2.11v2.77h2.12Z"/>
        <path class="cls-2" d="M171.7,41.53h3.08c2.59,0,4.39,1.78,4.39,4.1v.02c0,2.32-1.79,4.13-4.39,4.13h-3.08v-8.26ZM174.78,48.46c1.73,0,2.87-1.17,2.87-2.78v-.02c0-1.62-1.13-2.81-2.87-2.81h-1.63v5.61h1.63Z"/>
        <path class="cls-2" d="M182.78,41.53h1.45v8.26h-1.45v-8.26Z"/>
        <path class="cls-2" d="M188.21,41.53h1.34l4.42,5.71v-5.71h1.43v8.26h-1.21l-4.55-5.87v5.87h-1.43v-8.26Z"/>
        <path class="cls-2" d="M198.94,45.68v-.02c0-2.31,1.77-4.27,4.26-4.27,1.44,0,2.32.4,3.17,1.12l-.92,1.1c-.64-.54-1.26-.88-2.31-.88-1.52,0-2.68,1.33-2.68,2.91v.02c0,1.7,1.12,2.95,2.81,2.95.78,0,1.49-.25,1.99-.62v-1.54h-2.11v-1.26h3.51v3.47c-.81.7-1.98,1.29-3.44,1.29-2.58,0-4.28-1.84-4.28-4.25Z"/>
        <path class="cls-2" d="M210.07,48.17h1.57v1.62h-1.57v-1.62Z"/>
      </g>
    </g>
  </g>
</svg>